<svg width="16" height="16" viewBox="0 0 16 16" fill="none" xmlns="http://www.w3.org/2000/svg">
<path d="M9.78072 0C13.2152 0 16 2.78447 16 6.2186C16 9.65273 13.2152 12.4372 9.78069 12.4372C8.45999 12.4372 7.23517 12.0253 6.22837 11.3237L6.22764 11.323L1.61512 15.935C1.52953 16.0206 1.39343 16.0228 1.30561 15.935L0.0624714 14.692C-0.0231209 14.6064 -0.0187302 14.4645 0.0632019 14.3825L4.67504 9.77125C3.97335 8.76383 3.56141 7.53913 3.56141 6.2186C3.56141 2.78447 6.3462 0 9.78072 0ZM9.78072 10.974C12.4075 10.974 14.5367 8.84505 14.5367 6.2186C14.5367 3.59215 12.4074 1.4632 9.78072 1.4632C7.154 1.4632 5.02478 3.59215 5.02478 6.2186C5.02478 8.84505 7.15397 10.974 9.78072 10.974Z" fill="#42BA85"/>
</svg>
