<svg width="16" height="34" viewBox="0 0 16 34" fill="none" xmlns="http://www.w3.org/2000/svg">
<path fill-rule="evenodd" clip-rule="evenodd" d="M3.31767 17.1235V32.7942C3.31767 33.006 3.49414 33.2177 3.7412 33.2177H9.56476C9.77653 33.2177 9.9883 33.0412 9.9883 32.7942V16.8411H14.1883C14.4001 16.8411 14.5766 16.6647 14.6119 16.4529L14.9648 11.6882C15.0001 11.4411 14.7883 11.2293 14.5413 11.2293H9.953V7.84109C9.953 7.02932 10.5883 6.39402 11.4001 6.39402H14.6471C14.8589 6.39402 15.0707 6.21755 15.0707 5.97049V1.20576C15.0707 0.993992 14.8942 0.782227 14.6471 0.782227H9.14123C5.92945 0.782227 3.31767 3.39401 3.31767 6.60579V11.2293H0.423532C0.211766 11.2293 0 11.4058 0 11.6529V16.4529C0 16.6647 0.176472 16.8764 0.423532 16.8764H3.31767V17.1235Z" fill="black"/>
</svg>
