<svg width="42" height="42" viewBox="0 0 42 42" fill="none" xmlns="http://www.w3.org/2000/svg">
<path d="M29.5355 11.3807C28.4855 11.3807 27.6387 12.2275 27.6387 13.2775C27.6387 14.3275 28.4855 15.1743 29.5355 15.1743C30.5855 15.1743 31.4323 14.3275 31.4323 13.2775C31.4323 12.2275 30.5855 11.3807 29.5355 11.3807ZM21.0678 13.8194C16.6645 13.8194 13.0742 17.4098 13.0742 21.813C13.0742 26.2162 16.6645 29.8065 21.0678 29.8065C25.471 29.8065 29.0613 26.2162 29.0613 21.813C29.0613 17.4098 25.471 13.8194 21.0678 13.8194ZM21.0678 26.9614C18.2226 26.9614 15.9532 24.6581 15.9532 21.8469C15.9532 19.0017 18.2565 16.7323 21.0678 16.7323C23.9129 16.7323 26.1823 19.0356 26.1823 21.8469C26.1823 24.6581 23.879 26.9614 21.0678 26.9614ZM37.2242 15.1743C37.2242 9.78879 32.8549 5.41943 27.4694 5.41943H14.5645C9.17905 5.41943 4.80969 9.78879 4.80969 15.1743V28.0791C4.80969 33.4646 9.17905 37.834 14.5645 37.834H27.4355C32.821 37.834 37.1903 33.4646 37.1903 28.0791V15.1743H37.2242ZM34.142 28.0452C34.142 31.7372 31.1274 34.7517 27.4355 34.7517H14.5645C10.8726 34.7517 7.85808 31.7372 7.85808 28.0452V15.1743C7.85808 11.4485 10.8387 8.46782 14.5645 8.46782H27.4355C31.1274 8.46782 34.142 11.4823 34.142 15.1743V28.0452Z" fill="black"/>
</svg>
