<svg width="32" height="32" viewBox="0 0 32 32" fill="none" xmlns="http://www.w3.org/2000/svg">
<path d="M16 0.5C7.16342 0.5 0 7.43956 0 16C0 24.5604 7.16342 31.5 16 31.5C24.8366 31.5 32 24.5604 32 16C32 7.43956 24.8366 0.5 16 0.5ZM23.4163 11.0413C23.1755 13.4922 22.1336 19.4399 21.6034 22.185C21.3791 23.3465 20.9374 23.736 20.5099 23.7741C19.5809 23.8569 18.8752 23.1793 17.9753 22.6077C16.5671 21.7135 15.7715 21.1568 14.4046 20.2842C12.8249 19.2757 13.849 18.7217 14.7492 17.8154C14.9848 17.5784 19.0787 13.9711 19.1579 13.6438C19.1678 13.6029 19.1773 13.4501 19.0835 13.3698C18.9897 13.2896 18.8519 13.3168 18.7522 13.3386C18.611 13.3696 16.3614 14.8101 12.0033 17.6599C11.3648 18.0847 10.7864 18.2916 10.2682 18.2808C9.6969 18.2689 8.598 17.9679 7.78103 17.7106C6.77903 17.3951 5.98265 17.2283 6.052 16.6924C6.08813 16.4133 6.4849 16.1279 7.24232 15.8362C11.9067 13.8675 15.0169 12.5696 16.5732 11.9424C21.0165 10.152 21.9398 9.841 22.5416 9.83062C22.674 9.8285 22.9699 9.86025 23.1616 10.0109C23.2891 10.1183 23.3704 10.2681 23.3894 10.4307C23.4218 10.6326 23.4309 10.8374 23.4163 11.0413Z" fill="black"/>
</svg>
