<svg width="42" height="42" viewBox="0 0 42 42" fill="none" xmlns="http://www.w3.org/2000/svg">
<path fill-rule="evenodd" clip-rule="evenodd" d="M21.6774 5.35156C13.0403 5.35156 6.02905 12.3629 6.02905 21C6.02905 24.0483 6.87583 26.9612 8.5355 29.5016L6.16454 34.7516C5.96131 35.2258 6.02905 35.8016 6.36776 36.208C6.63873 36.5129 7.01131 36.6822 7.41776 36.6822C7.55325 36.6822 7.65486 36.6822 7.79034 36.6483L14.3613 34.8532C16.6307 36.0725 19.171 36.7161 21.7452 36.7161C30.3823 36.7161 37.3936 29.7048 37.3936 21.0677C37.3258 12.3629 30.3145 5.35156 21.6774 5.35156ZM21.6774 33.9387C19.3742 33.9387 17.1387 33.329 15.1742 32.1774C14.971 32.0419 14.7339 31.9741 14.4968 31.9741C14.3613 31.9741 14.2597 31.9741 14.1242 32.008L9.8226 33.1935L11.3129 29.908C11.5162 29.4677 11.4484 28.9258 11.1774 28.5532C9.5855 26.3516 8.73873 23.7435 8.73873 21C8.73873 13.887 14.5645 8.06124 21.6774 8.06124C28.7903 8.06124 34.6161 13.8532 34.6161 21C34.6161 28.1129 28.8242 33.9387 21.6774 33.9387Z" fill="black"/>
<path fill-rule="evenodd" clip-rule="evenodd" d="M27.7065 23.3371C27.0629 22.9306 26.1823 22.4903 25.4371 22.829C24.8613 23.0661 24.4548 24.0145 24.0823 24.4887C23.879 24.7258 23.6419 24.7596 23.3371 24.658C21.1016 23.7774 19.4081 22.2871 18.1887 20.2548C17.9855 19.95 18.0194 19.679 18.2565 19.3742C18.629 18.9338 19.1032 18.4258 19.2048 17.85C19.3065 17.2742 19.0355 16.5629 18.7984 16.0548C18.4935 15.3774 18.1548 14.429 17.4774 14.0564C16.8677 13.7177 16.0548 13.8871 15.5129 14.3613C14.5645 15.1403 14.0903 16.3596 14.1242 17.5451C14.1242 17.8838 14.1581 18.2225 14.2597 18.5613C14.4629 19.3403 14.8016 20.0854 15.2419 20.7967C15.5468 21.3387 15.8855 21.8467 16.2581 22.3209C17.4435 23.9467 18.9339 25.3354 20.6274 26.3854C21.4742 26.8935 22.4226 27.3677 23.371 27.6725C24.4548 28.0113 25.4032 28.3838 26.5548 28.1806C27.7742 27.9435 28.9597 27.1984 29.4339 26.0467C29.5694 25.708 29.6371 25.3016 29.5694 24.9629C29.3323 24.15 28.3161 23.7096 27.7065 23.3371Z" fill="black"/>
</svg>
